<mxfile host="Electron" modified="2024-04-15T19:29:17.252Z" agent="Mozilla/5.0 (X11; Linux x86_64) AppleWebKit/537.36 (KHTML, like Gecko) draw.io/24.2.5 Chrome/120.0.6099.109 Electron/28.1.0 Safari/537.36" etag="_VyoioA_jR2W6ztndQ3D" version="24.2.5" type="device">
  <diagram id="C5RBs43oDa-KdzZeNtuy" name="Page-1">
    <mxGraphModel dx="1434" dy="835" grid="1" gridSize="10" guides="1" tooltips="1" connect="1" arrows="1" fold="1" page="1" pageScale="1" pageWidth="827" pageHeight="1169" math="0" shadow="0">
      <root>
        <mxCell id="WIyWlLk6GJQsqaUBKTNV-0" />
        <mxCell id="WIyWlLk6GJQsqaUBKTNV-1" parent="WIyWlLk6GJQsqaUBKTNV-0" />
        <mxCell id="jrWGwMrJXK3F2KGjpDYz-5" style="edgeStyle=orthogonalEdgeStyle;rounded=0;orthogonalLoop=1;jettySize=auto;html=1;exitX=1;exitY=0.5;exitDx=0;exitDy=0;" edge="1" parent="WIyWlLk6GJQsqaUBKTNV-1" source="jrWGwMrJXK3F2KGjpDYz-0" target="jrWGwMrJXK3F2KGjpDYz-4">
          <mxGeometry relative="1" as="geometry" />
        </mxCell>
        <mxCell id="jrWGwMrJXK3F2KGjpDYz-20" style="edgeStyle=orthogonalEdgeStyle;rounded=0;orthogonalLoop=1;jettySize=auto;html=1;exitX=0.5;exitY=1;exitDx=0;exitDy=0;" edge="1" parent="WIyWlLk6GJQsqaUBKTNV-1" source="jrWGwMrJXK3F2KGjpDYz-0" target="jrWGwMrJXK3F2KGjpDYz-19">
          <mxGeometry relative="1" as="geometry" />
        </mxCell>
        <mxCell id="jrWGwMrJXK3F2KGjpDYz-0" value="Addons" style="ellipse;whiteSpace=wrap;html=1;" vertex="1" parent="WIyWlLk6GJQsqaUBKTNV-1">
          <mxGeometry x="60" y="15.51" width="120" height="80" as="geometry" />
        </mxCell>
        <mxCell id="jrWGwMrJXK3F2KGjpDYz-7" style="edgeStyle=orthogonalEdgeStyle;rounded=0;orthogonalLoop=1;jettySize=auto;html=1;exitX=1;exitY=0.5;exitDx=0;exitDy=0;" edge="1" parent="WIyWlLk6GJQsqaUBKTNV-1" source="jrWGwMrJXK3F2KGjpDYz-4" target="jrWGwMrJXK3F2KGjpDYz-6">
          <mxGeometry relative="1" as="geometry" />
        </mxCell>
        <mxCell id="jrWGwMrJXK3F2KGjpDYz-26" style="edgeStyle=orthogonalEdgeStyle;rounded=0;orthogonalLoop=1;jettySize=auto;html=1;exitX=0.5;exitY=1;exitDx=0;exitDy=0;entryX=0.5;entryY=0;entryDx=0;entryDy=0;" edge="1" parent="WIyWlLk6GJQsqaUBKTNV-1" source="jrWGwMrJXK3F2KGjpDYz-4" target="jrWGwMrJXK3F2KGjpDYz-25">
          <mxGeometry relative="1" as="geometry" />
        </mxCell>
        <mxCell id="jrWGwMrJXK3F2KGjpDYz-4" value="Server" style="ellipse;whiteSpace=wrap;html=1;" vertex="1" parent="WIyWlLk6GJQsqaUBKTNV-1">
          <mxGeometry x="250" y="15.51" width="120" height="80" as="geometry" />
        </mxCell>
        <mxCell id="jrWGwMrJXK3F2KGjpDYz-9" style="edgeStyle=orthogonalEdgeStyle;rounded=0;orthogonalLoop=1;jettySize=auto;html=1;exitX=1;exitY=0.5;exitDx=0;exitDy=0;" edge="1" parent="WIyWlLk6GJQsqaUBKTNV-1" source="jrWGwMrJXK3F2KGjpDYz-6" target="jrWGwMrJXK3F2KGjpDYz-8">
          <mxGeometry relative="1" as="geometry" />
        </mxCell>
        <mxCell id="jrWGwMrJXK3F2KGjpDYz-17" style="edgeStyle=orthogonalEdgeStyle;rounded=0;orthogonalLoop=1;jettySize=auto;html=1;exitX=0.5;exitY=1;exitDx=0;exitDy=0;entryX=0.5;entryY=0;entryDx=0;entryDy=0;" edge="1" parent="WIyWlLk6GJQsqaUBKTNV-1" source="jrWGwMrJXK3F2KGjpDYz-6" target="jrWGwMrJXK3F2KGjpDYz-13">
          <mxGeometry relative="1" as="geometry" />
        </mxCell>
        <mxCell id="jrWGwMrJXK3F2KGjpDYz-6" value="UI" style="ellipse;whiteSpace=wrap;html=1;" vertex="1" parent="WIyWlLk6GJQsqaUBKTNV-1">
          <mxGeometry x="549.04" y="15.510000000000002" width="120" height="80" as="geometry" />
        </mxCell>
        <mxCell id="jrWGwMrJXK3F2KGjpDYz-11" style="edgeStyle=orthogonalEdgeStyle;rounded=0;orthogonalLoop=1;jettySize=auto;html=1;exitX=0.5;exitY=1;exitDx=0;exitDy=0;entryX=0.5;entryY=0;entryDx=0;entryDy=0;" edge="1" parent="WIyWlLk6GJQsqaUBKTNV-1" source="jrWGwMrJXK3F2KGjpDYz-8" target="jrWGwMrJXK3F2KGjpDYz-10">
          <mxGeometry relative="1" as="geometry" />
        </mxCell>
        <mxCell id="jrWGwMrJXK3F2KGjpDYz-8" value="Game" style="ellipse;whiteSpace=wrap;html=1;" vertex="1" parent="WIyWlLk6GJQsqaUBKTNV-1">
          <mxGeometry x="729.04" y="15.510000000000002" width="120" height="80" as="geometry" />
        </mxCell>
        <mxCell id="jrWGwMrJXK3F2KGjpDYz-10" value="LocalConfig" style="rounded=1;whiteSpace=wrap;html=1;" vertex="1" parent="WIyWlLk6GJQsqaUBKTNV-1">
          <mxGeometry x="729.04" y="145.51000000000002" width="120" height="60" as="geometry" />
        </mxCell>
        <mxCell id="jrWGwMrJXK3F2KGjpDYz-13" value="UIScreen" style="swimlane;whiteSpace=wrap;html=1;" vertex="1" parent="WIyWlLk6GJQsqaUBKTNV-1">
          <mxGeometry x="549.04" y="115.50999999999999" width="120" height="240" as="geometry">
            <mxRectangle x="500" y="100" width="90" height="30" as="alternateBounds" />
          </mxGeometry>
        </mxCell>
        <mxCell id="jrWGwMrJXK3F2KGjpDYz-14" value="MainMenu" style="strokeWidth=2;html=1;shape=mxgraph.flowchart.display;whiteSpace=wrap;" vertex="1" parent="jrWGwMrJXK3F2KGjpDYz-13">
          <mxGeometry x="10" y="30" width="100" height="60" as="geometry" />
        </mxCell>
        <mxCell id="jrWGwMrJXK3F2KGjpDYz-15" value="Lobby" style="strokeWidth=2;html=1;shape=mxgraph.flowchart.display;whiteSpace=wrap;" vertex="1" parent="jrWGwMrJXK3F2KGjpDYz-13">
          <mxGeometry x="10" y="100" width="100" height="60" as="geometry" />
        </mxCell>
        <mxCell id="jrWGwMrJXK3F2KGjpDYz-16" value="World" style="strokeWidth=2;html=1;shape=mxgraph.flowchart.display;whiteSpace=wrap;" vertex="1" parent="jrWGwMrJXK3F2KGjpDYz-13">
          <mxGeometry x="10" y="170" width="100" height="60" as="geometry" />
        </mxCell>
        <mxCell id="jrWGwMrJXK3F2KGjpDYz-19" value="Logger" style="swimlane;whiteSpace=wrap;html=1;" vertex="1" parent="WIyWlLk6GJQsqaUBKTNV-1">
          <mxGeometry x="20" y="130.51" width="200" height="150" as="geometry">
            <mxRectangle x="20" y="100" width="80" height="30" as="alternateBounds" />
          </mxGeometry>
        </mxCell>
        <mxCell id="jrWGwMrJXK3F2KGjpDYz-24" value="LogStream" style="swimlane;whiteSpace=wrap;html=1;startSize=23;" vertex="1" parent="jrWGwMrJXK3F2KGjpDYz-19">
          <mxGeometry y="20" width="200" height="130" as="geometry">
            <mxRectangle y="20" width="100" height="30" as="alternateBounds" />
          </mxGeometry>
        </mxCell>
        <mxCell id="jrWGwMrJXK3F2KGjpDYz-22" value="Log" style="rounded=1;whiteSpace=wrap;html=1;" vertex="1" parent="jrWGwMrJXK3F2KGjpDYz-24">
          <mxGeometry x="44" y="40" width="120" height="60" as="geometry" />
        </mxCell>
        <mxCell id="jrWGwMrJXK3F2KGjpDYz-25" value="ConnectionManager" style="rounded=1;whiteSpace=wrap;html=1;" vertex="1" parent="WIyWlLk6GJQsqaUBKTNV-1">
          <mxGeometry x="250" y="125.51" width="120" height="60" as="geometry" />
        </mxCell>
        <mxCell id="jrWGwMrJXK3F2KGjpDYz-29" value="DebugPlayerInfo" style="strokeWidth=2;html=1;shape=mxgraph.flowchart.display;whiteSpace=wrap;" vertex="1" parent="WIyWlLk6GJQsqaUBKTNV-1">
          <mxGeometry x="439.03999999999996" y="175.51000000000002" width="100" height="60" as="geometry" />
        </mxCell>
        <mxCell id="jrWGwMrJXK3F2KGjpDYz-30" style="edgeStyle=orthogonalEdgeStyle;rounded=0;orthogonalLoop=1;jettySize=auto;html=1;exitX=0;exitY=1;exitDx=0;exitDy=0;entryX=0;entryY=0.5;entryDx=0;entryDy=0;entryPerimeter=0;" edge="1" parent="WIyWlLk6GJQsqaUBKTNV-1" source="jrWGwMrJXK3F2KGjpDYz-6" target="jrWGwMrJXK3F2KGjpDYz-27">
          <mxGeometry relative="1" as="geometry" />
        </mxCell>
        <mxCell id="jrWGwMrJXK3F2KGjpDYz-27" value="DebugLog" style="strokeWidth=2;html=1;shape=mxgraph.flowchart.display;whiteSpace=wrap;" vertex="1" parent="WIyWlLk6GJQsqaUBKTNV-1">
          <mxGeometry x="439.03999999999996" y="105.50999999999999" width="100" height="60" as="geometry" />
        </mxCell>
        <mxCell id="jrWGwMrJXK3F2KGjpDYz-31" style="edgeStyle=orthogonalEdgeStyle;rounded=0;orthogonalLoop=1;jettySize=auto;html=1;exitX=0;exitY=1;exitDx=0;exitDy=0;entryX=0;entryY=0.5;entryDx=0;entryDy=0;entryPerimeter=0;" edge="1" parent="WIyWlLk6GJQsqaUBKTNV-1" source="jrWGwMrJXK3F2KGjpDYz-6" target="jrWGwMrJXK3F2KGjpDYz-29">
          <mxGeometry relative="1" as="geometry" />
        </mxCell>
        <mxCell id="jrWGwMrJXK3F2KGjpDYz-32" value="" style="endArrow=classic;html=1;rounded=0;fillColor=#60a917;strokeColor=#2D7600;shape=flexArrow;entryX=0;entryY=0.5;entryDx=0;entryDy=0;entryPerimeter=0;" edge="1" parent="WIyWlLk6GJQsqaUBKTNV-1" source="jrWGwMrJXK3F2KGjpDYz-4" target="jrWGwMrJXK3F2KGjpDYz-15">
          <mxGeometry relative="1" as="geometry">
            <mxPoint x="300" y="390" as="sourcePoint" />
            <mxPoint x="400" y="390" as="targetPoint" />
          </mxGeometry>
        </mxCell>
        <mxCell id="jrWGwMrJXK3F2KGjpDYz-33" value="" style="shape=message;html=1;outlineConnect=0;" vertex="1" parent="jrWGwMrJXK3F2KGjpDYz-32">
          <mxGeometry width="20" height="14" relative="1" as="geometry">
            <mxPoint x="-10" y="-7" as="offset" />
          </mxGeometry>
        </mxCell>
        <mxCell id="jrWGwMrJXK3F2KGjpDYz-36" value="" style="endArrow=classic;html=1;rounded=0;fillColor=#60a917;strokeColor=#2D7600;shape=flexArrow;entryX=0;entryY=0.5;entryDx=0;entryDy=0;entryPerimeter=0;exitX=1;exitY=0.5;exitDx=0;exitDy=0;" edge="1" parent="WIyWlLk6GJQsqaUBKTNV-1" source="jrWGwMrJXK3F2KGjpDYz-4" target="jrWGwMrJXK3F2KGjpDYz-14">
          <mxGeometry relative="1" as="geometry">
            <mxPoint x="470" y="30" as="sourcePoint" />
            <mxPoint x="736" y="193" as="targetPoint" />
          </mxGeometry>
        </mxCell>
        <mxCell id="jrWGwMrJXK3F2KGjpDYz-37" value="" style="shape=message;html=1;outlineConnect=0;" vertex="1" parent="jrWGwMrJXK3F2KGjpDYz-36">
          <mxGeometry width="20" height="14" relative="1" as="geometry">
            <mxPoint x="-10" y="-7" as="offset" />
          </mxGeometry>
        </mxCell>
        <mxCell id="jrWGwMrJXK3F2KGjpDYz-34" value="" style="endArrow=classic;html=1;rounded=0;fillColor=#a20025;strokeColor=#6F0000;shape=flexArrow;entryX=1;entryY=0.75;entryDx=0;entryDy=0;exitX=0;exitY=0.5;exitDx=0;exitDy=0;exitPerimeter=0;" edge="1" parent="WIyWlLk6GJQsqaUBKTNV-1" source="jrWGwMrJXK3F2KGjpDYz-15" target="jrWGwMrJXK3F2KGjpDYz-25">
          <mxGeometry relative="1" as="geometry">
            <mxPoint x="520" y="450" as="sourcePoint" />
            <mxPoint x="696" y="483" as="targetPoint" />
          </mxGeometry>
        </mxCell>
        <mxCell id="jrWGwMrJXK3F2KGjpDYz-35" value="" style="shape=message;html=1;outlineConnect=0;" vertex="1" parent="jrWGwMrJXK3F2KGjpDYz-34">
          <mxGeometry width="20" height="14" relative="1" as="geometry">
            <mxPoint x="-10" y="-7" as="offset" />
          </mxGeometry>
        </mxCell>
        <mxCell id="jrWGwMrJXK3F2KGjpDYz-38" value="" style="endArrow=classic;html=1;rounded=0;fillColor=#60a917;strokeColor=#2D7600;shape=flexArrow;entryX=0.94;entryY=0.717;entryDx=0;entryDy=0;entryPerimeter=0;exitX=0.033;exitY=0.367;exitDx=0;exitDy=0;exitPerimeter=0;" edge="1" parent="WIyWlLk6GJQsqaUBKTNV-1" source="jrWGwMrJXK3F2KGjpDYz-10" target="jrWGwMrJXK3F2KGjpDYz-14">
          <mxGeometry relative="1" as="geometry">
            <mxPoint x="779.04" y="185.51000000000002" as="sourcePoint" />
            <mxPoint x="1045.04" y="348.51" as="targetPoint" />
          </mxGeometry>
        </mxCell>
        <mxCell id="jrWGwMrJXK3F2KGjpDYz-39" value="" style="shape=message;html=1;outlineConnect=0;" vertex="1" parent="jrWGwMrJXK3F2KGjpDYz-38">
          <mxGeometry width="20" height="14" relative="1" as="geometry">
            <mxPoint x="-10" y="-7" as="offset" />
          </mxGeometry>
        </mxCell>
        <mxCell id="jrWGwMrJXK3F2KGjpDYz-40" value="" style="endArrow=classic;html=1;rounded=0;fillColor=#a20025;strokeColor=#6F0000;shape=flexArrow;entryX=0.11;entryY=0.583;entryDx=0;entryDy=0;exitX=1;exitY=0.5;exitDx=0;exitDy=0;entryPerimeter=0;" edge="1" parent="WIyWlLk6GJQsqaUBKTNV-1" source="jrWGwMrJXK3F2KGjpDYz-25" target="jrWGwMrJXK3F2KGjpDYz-27">
          <mxGeometry relative="1" as="geometry">
            <mxPoint x="600" y="335" as="sourcePoint" />
            <mxPoint x="350" y="250" as="targetPoint" />
          </mxGeometry>
        </mxCell>
        <mxCell id="jrWGwMrJXK3F2KGjpDYz-41" value="" style="shape=message;html=1;outlineConnect=0;" vertex="1" parent="jrWGwMrJXK3F2KGjpDYz-40">
          <mxGeometry width="20" height="14" relative="1" as="geometry">
            <mxPoint x="-10" y="-7" as="offset" />
          </mxGeometry>
        </mxCell>
        <mxCell id="jrWGwMrJXK3F2KGjpDYz-42" value="" style="endArrow=classic;html=1;rounded=0;fillColor=#a20025;strokeColor=#6F0000;shape=flexArrow;entryX=0.083;entryY=0.625;entryDx=0;entryDy=0;exitX=1;exitY=0;exitDx=0;exitDy=0;entryPerimeter=0;" edge="1" parent="WIyWlLk6GJQsqaUBKTNV-1" source="jrWGwMrJXK3F2KGjpDYz-25" target="jrWGwMrJXK3F2KGjpDYz-6">
          <mxGeometry relative="1" as="geometry">
            <mxPoint x="480" y="20" as="sourcePoint" />
            <mxPoint x="631" y="55" as="targetPoint" />
          </mxGeometry>
        </mxCell>
        <mxCell id="jrWGwMrJXK3F2KGjpDYz-43" value="" style="shape=message;html=1;outlineConnect=0;" vertex="1" parent="jrWGwMrJXK3F2KGjpDYz-42">
          <mxGeometry width="20" height="14" relative="1" as="geometry">
            <mxPoint x="-10" y="-7" as="offset" />
          </mxGeometry>
        </mxCell>
        <mxCell id="jrWGwMrJXK3F2KGjpDYz-44" value="" style="endArrow=classic;html=1;rounded=0;fillColor=#1ba1e2;strokeColor=#006EAF;shape=flexArrow;exitX=1;exitY=0;exitDx=0;exitDy=0;entryX=0.1;entryY=0.2;entryDx=0;entryDy=0;entryPerimeter=0;" edge="1" parent="WIyWlLk6GJQsqaUBKTNV-1" source="jrWGwMrJXK3F2KGjpDYz-4" target="jrWGwMrJXK3F2KGjpDYz-6">
          <mxGeometry relative="1" as="geometry">
            <mxPoint x="1030" y="120" as="sourcePoint" />
            <mxPoint x="910" y="130" as="targetPoint" />
          </mxGeometry>
        </mxCell>
        <mxCell id="jrWGwMrJXK3F2KGjpDYz-45" value="" style="shape=message;html=1;outlineConnect=0;" vertex="1" parent="jrWGwMrJXK3F2KGjpDYz-44">
          <mxGeometry width="20" height="14" relative="1" as="geometry">
            <mxPoint x="-10" y="-7" as="offset" />
          </mxGeometry>
        </mxCell>
        <mxCell id="jrWGwMrJXK3F2KGjpDYz-46" value="" style="endArrow=classic;html=1;rounded=0;fillColor=#a20025;strokeColor=#6F0000;shape=flexArrow;entryX=0.5;entryY=0;entryDx=0;entryDy=0;exitX=0.5;exitY=0;exitDx=0;exitDy=0;" edge="1" parent="WIyWlLk6GJQsqaUBKTNV-1" source="jrWGwMrJXK3F2KGjpDYz-6" target="jrWGwMrJXK3F2KGjpDYz-4">
          <mxGeometry relative="1" as="geometry">
            <mxPoint x="640" y="375" as="sourcePoint" />
            <mxPoint x="390" y="290" as="targetPoint" />
          </mxGeometry>
        </mxCell>
        <mxCell id="jrWGwMrJXK3F2KGjpDYz-47" value="" style="shape=message;html=1;outlineConnect=0;" vertex="1" parent="jrWGwMrJXK3F2KGjpDYz-46">
          <mxGeometry width="20" height="14" relative="1" as="geometry">
            <mxPoint x="-10" y="-7" as="offset" />
          </mxGeometry>
        </mxCell>
        <mxCell id="jrWGwMrJXK3F2KGjpDYz-48" value="" style="endArrow=classic;html=1;rounded=0;fillColor=#1ba1e2;strokeColor=#006EAF;shape=flexArrow;exitX=1;exitY=0.5;exitDx=0;exitDy=0;entryX=0;entryY=0;entryDx=0;entryDy=0;" edge="1" parent="WIyWlLk6GJQsqaUBKTNV-1" source="jrWGwMrJXK3F2KGjpDYz-4" target="jrWGwMrJXK3F2KGjpDYz-8">
          <mxGeometry relative="1" as="geometry">
            <mxPoint x="450" y="-120" as="sourcePoint" />
            <mxPoint x="720" y="-116" as="targetPoint" />
          </mxGeometry>
        </mxCell>
        <mxCell id="jrWGwMrJXK3F2KGjpDYz-49" value="" style="shape=message;html=1;outlineConnect=0;" vertex="1" parent="jrWGwMrJXK3F2KGjpDYz-48">
          <mxGeometry width="20" height="14" relative="1" as="geometry">
            <mxPoint x="-10" y="-7" as="offset" />
          </mxGeometry>
        </mxCell>
      </root>
    </mxGraphModel>
  </diagram>
</mxfile>
